<svg width="40" height="40" viewBox="0 0 40 40" fill="none" xmlns="http://www.w3.org/2000/svg">
<path d="M20 5.33331C19.2 5.33331 18.9334 5.86665 18.4 6.39998L2.93335 31.7333C2.66669 32 2.66669 32.5333 2.66669 32.8C2.66669 34.1333 3.73335 34.6666 4.53335 34.6666H35.4667C36.5334 34.6666 37.3334 34.1333 37.3334 32.8C37.3334 32.2666 37.3334 32.2666 37.0667 31.7333L21.8667 6.39998C21.3334 5.86665 20.8 5.33331 20 5.33331ZM20 9.33331L28.8 24H26.6667L22.6667 20L20 24L17.3334 20L13.3334 24H10.9334L20 9.33331Z" fill="black"/>
</svg>
